<svg width="20" height="20" viewBox="0 0 20 20" fill="none" xmlns="http://www.w3.org/2000/svg">
<g clip-path="url(#clip0_161_8384)">
<path d="M17.2222 17.2222H2.77772C2.63038 17.2222 2.48907 17.2808 2.38489 17.3849C2.2807 17.4891 2.22217 17.6304 2.22217 17.7778C2.22217 17.9251 2.2807 18.0664 2.38489 18.1706C2.48907 18.2748 2.63038 18.3333 2.77772 18.3333H17.2222C17.3695 18.3333 17.5108 18.2748 17.615 18.1706C17.7192 18.0664 17.7777 17.9251 17.7777 17.7778C17.7777 17.6304 17.7192 17.4891 17.615 17.3849C17.5108 17.2808 17.3695 17.2222 17.2222 17.2222Z" fill="white"/>
<path d="M10.0001 16.3778L15.8945 10.4833C15.9855 10.3771 16.0331 10.2403 16.0277 10.1005C16.0223 9.96071 15.9643 9.82807 15.8654 9.72913C15.7664 9.63019 15.6338 9.57223 15.494 9.56683C15.3542 9.56143 15.2175 9.60898 15.1112 9.7L10.5556 14.25V2.77778C10.5556 2.63043 10.4971 2.48913 10.3929 2.38494C10.2887 2.28075 10.1474 2.22222 10.0001 2.22222C9.85273 2.22222 9.71142 2.28075 9.60723 2.38494C9.50305 2.48913 9.44452 2.63043 9.44452 2.77778V14.25L4.89452 9.7C4.84471 9.64184 4.78343 9.59461 4.7145 9.56126C4.64558 9.52792 4.5705 9.50918 4.49399 9.50622C4.41748 9.50327 4.34118 9.51616 4.26989 9.54409C4.1986 9.57202 4.13385 9.61439 4.07971 9.66853C4.02557 9.72267 3.9832 9.78742 3.95527 9.85871C3.92734 9.93 3.91445 10.0063 3.91741 10.0828C3.92036 10.1593 3.9391 10.2344 3.97245 10.3033C4.00579 10.3722 4.05303 10.4335 4.11118 10.4833L10.0001 16.3778Z" fill="white"/>
</g>
<defs>
<clipPath id="clip0_161_8384">
<rect width="20" height="20" fill="white"/>
</clipPath>
</defs>
</svg>
